#!OML:ASF E:\I on waltz\AllaLogoMonkeySwing\Project 1\Capture day 1\Session 1\Subject1.ASF
:FULLY-SPECIFIED
:DEGREES
363
root 13.9914 17.6869 20.9644 -9.10115 82.3303 -10.9567
lowerback 9.53784 3.80525 -1.5751
upperback 0.555203 4.91116 -0.015059
thorax -4.88902 2.46766 0.193934
lowerneck -8.41166 10.2291 6.01384
upperneck 11.709 15.9092 -16.2025
head 6.78432 7.1001 -4.61178
rclavicle 5.14355e-014 -6.55989e-015
rhumerus -30.1294 -16.0489 -84.1808
rradius 24.6608
rwrist 4.81965
rhand -9.00027 -38.3259
rfingers 7.12502
rthumb 16.9462 -67.6066
lclavicle 5.14355e-014 -6.55989e-015
lhumerus -39.3709 18.7853 79.1082
lradius 42.8731
lwrist 3.72337
lhand -10.7301 -13.7958
lfingers 7.12502
lthumb 15.2805 15.6198
rfemur -0.459619 6.89055 18.651
rtibia 17.5104
rfoot -17.881 1.31436
rtoes 20.7908
lfemur -8.3457 -12.8895 -13.6065
ltibia 20.2984
lfoot -35.9864 24.3338
ltoes -33.6949
364
root 13.9173 17.688 21.0233 -9.31752 83.3785 -11.3179
lowerback 9.92885 3.68509 -1.6825
upperback 0.638703 4.73439 -0.0203291
thorax -5.02475 2.38272 0.249507
lowerneck -8.39964 10.1319 5.95218
upperneck 11.4008 15.7377 -16.2786
head 6.66659 7.02606 -4.65057
rclavicle 9.44227e-016 -5.76476e-015
rhumerus -29.8001 -16.0358 -84.0006
rradius 24.757
rwrist 4.73539
rhand -8.91117 -38.4392
rfingers 7.12502
rthumb 17.0319 -67.7126
lclavicle 9.44227e-016 -5.76476e-015
lhumerus -39.3846 17.9628 79.9601
lradius 43.8311
lwrist 4.2216
lhand -11.0107 -13.7935
lfingers 7.12502
lthumb 15.0101 15.6424
rfemur -0.591656 6.20269 18.5999
rtibia 17.2169
rfoot -17.5073 0.960512
rtoes 21.3006
lfemur -8.91974 -13.7436 -13.6294
ltibia 20.3899
lfoot -35.6734 24.1221
ltoes -33.2553
365
root 13.8411 17.6894 21.0789 -15.9102 84.4195 -18.3781
lowerback 10.0664 3.44326 -1.12573
upperback 0.630442 4.48155 0.136202
thorax -5.07441 2.24723 0.130271
lowerneck -8.56723 10.2393 6.0603
upperneck 11.5355 15.8734 -16.2002
head 6.75626 7.08356 -4.61559
rclavicle -3.09856e-014 2.78299e-015
rhumerus -29.4339 -15.9954 -83.8198
rradius 24.8379
rwrist 4.59481
rhand -8.88085 -38.3832
rfingers 7.12502
rthumb 17.0611 -67.654
lclavicle -3.09856e-014 2.78299e-015
lhumerus -39.3886 17.2059 80.8074
lradius 44.6277
lwrist 4.60594
lhand -11.3378 -13.8441
lfingers 7.12502
lthumb 14.6951 15.6151
rfemur -1.17269 5.70512 19.3068
rtibia 17.1226
rfoot -17.3421 0.960957
rtoes 21.627
lfemur -10.0247 -14.5384 -12.7387
ltibia 20.6627
lfoot -35.3013 24.1041
ltoes -32.6983
366
root 13.7641 17.6898 21.1296 -27.0222 85.4763 -30.0038
lowerback 10.1901 3.1455 -0.456378
upperback 0.607943 4.1716 0.324496
thorax -5.12847 2.08131 -0.00986672
lowerneck -8.71372 10.2547 6.08528
upperneck 11.5199 15.8848 -16.2151
head 6.78212 7.08188 -4.61509
rclavicle 9.93923e-015 2.08724e-015
rhumerus -29.0803 -16.1402 -83.5208
rradius 24.9477
rwrist 4.5053
rhand -8.90169 -38.3197
rfingers 7.12502
rthumb 17.0411 -67.5923
lclavicle 9.93923e-015 2.08724e-015
lhumerus -39.2119 16.2591 81.7762
lradius 45.1397
lwrist 4.95977
lhand -11.7034 -14.0339
lfingers 7.12502
lthumb 14.3428 15.4507
rfemur -1.8366 5.0939 20.0605
rtibia 17.0688
rfoot -16.9836 0.370339
rtoes 21.7562
lfemur -11.3211 -15.1783 -11.7289
ltibia 21.0006
lfoot -35.2031 24.2658
ltoes -31.9101
367
root 13.6962 17.6867 21.1853 -40.4428 86.4928 -43.833
lowerback 10.2898 2.89495 -0.221003
upperback 0.628072 3.87477 0.471727
thorax -5.15545 1.93163 0.0501972
lowerneck -8.89284 10.2027 6.0441
upperneck 11.5048 15.8194 -16.2627
head 6.8027 7.03814 -4.6231
rclavicle 2.65874e-015 8.94531e-016
rhumerus -28.8404 -16.0864 -83.2022
rradius 25.2834
rwrist 4.1263
rhand -8.97103 -38.4045
rfingers 7.12502
rthumb 16.9743 -67.6828
lclavicle 2.65874e-015 8.94531e-016
lhumerus -39.044 15.3121 82.7919
lradius 45.5378
lwrist 5.10798
lhand -11.901 -14.1659
lfingers 7.12502
lthumb 14.1524 15.3321
rfemur -2.30828 4.31985 20.4151
rtibia 16.9032
rfoot -16.8965 0.110539
rtoes 21.3564
lfemur -12.4507 -15.4289 -11.098
ltibia 21.1707
lfoot -35.5722 24.5094
ltoes -30.5326
